<?xml version="1.0" standalone="no"?>
<!DOCTYPE svg PUBLIC "-//W3C//DTD SVG 20010904//EN"
 "http://www.w3.org/TR/2001/REC-SVG-20010904/DTD/svg10.dtd">
<svg version="1.0" xmlns="http://www.w3.org/2000/svg"
 width="700.000000pt" height="700.000000pt" viewBox="0 0 700.000000 700.000000"
 preserveAspectRatio="xMidYMid meet">
<metadata>
Created by potrace 1.14, written by Peter Selinger 2001-2017
</metadata>
<g transform="translate(0.000000,700.000000) scale(0.100000,-0.100000)"
fill="#000000" stroke="none">
<path d="M0 6300 l0 -700 700 0 700 0 0 -700 0 -700 -700 0 -700 0 0 -1400 0
-1400 700 0 700 0 0 -700 0 -700 2100 0 2100 0 0 700 0 700 700 0 700 0 0
1400 0 1400 -700 0 -700 0 0 700 0 700 700 0 700 0 0 700 0 700 -700 0 -700 0
0 -700 0 -700 -2100 0 -2100 0 0 700 0 700 -700 0 -700 0 0 -700z m2800 -2800
l0 -700 -700 0 -700 0 0 700 0 700 700 0 700 0 0 -700z m2800 0 l0 -700 -700
0 -700 0 0 700 0 700 700 0 700 0 0 -700z"/>
</g>
</svg>
